<?xml version="1.0" standalone="no"?>
<!DOCTYPE svg PUBLIC "-//W3C//DTD SVG 20010904//EN"
 "http://www.w3.org/TR/2001/REC-SVG-20010904/DTD/svg10.dtd">
<svg version="1.0" xmlns="http://www.w3.org/2000/svg"
 width="256.000000pt" height="256.000000pt" viewBox="0 0 256.000000 256.000000"
 preserveAspectRatio="xMidYMid meet">

<g transform="translate(0.000000,256.000000) scale(0.100000,-0.100000)"
fill="#FFFFFF" stroke="none">
<path d="M0 1895 c0 -366 4 -665 8 -665 4 0 8 10 9 22 1 11 8 25 15 29 8 6 9
9 2 9 -7 0 -14 9 -17 21 -4 16 -2 19 10 15 14 -6 14 -4 0 17 -12 18 -17 62 -7
62 1 0 2 19 4 43 1 24 -1 37 -6 30 -5 -8 -8 -3 -8 15 0 15 4 27 9 27 5 0 11 7
14 14 4 10 1 13 -9 9 -7 -3 -14 0 -14 6 0 6 5 11 11 11 5 0 7 5 3 12 -4 6 4
21 21 34 28 22 27 44 -2 44 -13 0 -12 5 7 25 l23 25 -29 1 c-16 0 -24 3 -17 5
7 3 10 11 7 19 -3 7 -1 16 5 20 8 4 8 12 1 26 -8 15 -7 19 4 19 17 0 33 39 20
49 -19 14 -13 31 11 31 l25 0 -1 -617 c-1 -340 -4 -643 -9 -673 -4 -30 -8 -47
-9 -37 0 10 -5 16 -10 13 -8 -5 -11 1 -20 39 -5 18 -23 35 -32 29 -5 -3 -9 5
-9 17 0 18 3 19 14 9 12 -9 15 -8 13 8 0 11 -6 18 -12 16 -11 -5 -13 46 -1 64
7 12 -8 25 -18 15 -3 -3 -6 -174 -6 -380 l0 -373 1280 0 1280 0 0 1280 0 1280
-1280 0 -1280 0 0 -665z m1457 590 c-5 -12 9 -15 76 -18 45 -1 3 -3 -93 -3
-96 0 -141 2 -98 3 51 3 80 9 88 18 16 19 34 19 27 0z m-737 -21 c0 -2 -51 -3
-112 -2 -112 2 -112 2 -33 7 77 6 145 3 145 -5z m60 6 c0 -5 -12 -10 -27 -9
l-28 1 25 8 c14 4 26 8 28 9 1 1 2 -3 2 -9z m98 -7 c-10 -2 -28 -2 -40 0 -13
2 -5 4 17 4 22 1 32 -1 23 -4z m65 0 c-7 -2 -19 -2 -25 0 -7 3 -2 5 12 5 14 0
19 -2 13 -5z m295 0 c-10 -2 -28 -2 -40 0 -13 2 -5 4 17 4 22 1 32 -1 23 -4z
m542 -44 c0 -8 4 -8 13 -1 15 13 519 17 531 4 4 -4 12 -8 17 -8 5 -1 14 -2 19
-3 6 0 10 -10 10 -21 0 -23 -37 -27 -88 -9 -25 9 -37 7 -62 -7 -35 -21 -40
-40 -7 -29 12 4 33 7 47 7 109 -3 108 -3 103 -24 -4 -14 0 -21 16 -25 11 -3
18 -9 15 -14 -3 -5 1 -16 10 -24 11 -11 16 -12 19 -2 2 6 5 -46 6 -117 1 -115
0 -127 -14 -116 -13 11 -14 10 -9 -6 4 -10 11 -24 16 -31 5 -6 8 -94 6 -195
-3 -170 -2 -184 14 -180 13 3 18 17 20 56 l3 51 5 -57 c3 -31 3 -56 0 -55 -3
0 -16 -3 -28 -7 -13 -4 -39 -5 -57 -2 -30 6 -34 11 -45 59 -15 62 -52 138 -91
188 l-28 35 21 32 c23 37 15 42 -18 11 l-23 -21 -33 25 c-49 38 -137 76 -190
83 l-47 6 -6 52 c-3 28 -11 98 -18 156 -7 58 -16 105 -22 105 -5 -1 -17 -71
-26 -155 -9 -85 -17 -156 -18 -157 -1 -2 -14 -3 -31 -3 -42 0 -129 -35 -185
-75 -48 -34 -71 -35 -90 -5 -3 6 -11 10 -16 10 -6 0 0 -14 12 -31 l22 -31 -21
-26 c-45 -57 -73 -114 -89 -179 -10 -37 -19 -70 -21 -73 -1 -2 -60 -11 -129
-20 -70 -8 -127 -19 -128 -25 0 -5 41 -16 90 -22 195 -27 172 -17 179 -73 7
-54 65 -177 96 -205 l20 -18 -21 -33 c-23 -39 -18 -43 18 -15 l24 20 44 -34
c48 -36 131 -71 194 -81 l38 -6 14 -117 c8 -65 18 -115 24 -114 6 1 18 53 27
115 9 62 17 114 17 115 1 1 18 5 39 9 64 12 141 44 188 80 l45 35 31 -22 c17
-12 29 -18 27 -13 -3 5 -11 21 -18 36 -12 24 -11 29 17 65 39 48 67 111 82
184 l11 57 65 7 c63 6 95 1 60 -10 -9 -3 -23 -7 -31 -10 -12 -3 -15 -23 -16
-82 -1 -43 -1 -82 1 -88 1 -5 1 -194 1 -419 -1 -290 -4 -412 -12 -417 -8 -5
-8 -8 0 -13 6 -4 10 -33 10 -69 -1 -34 -4 -48 -6 -32 -3 17 -9 35 -14 40 -7 7
-10 7 -9 0 5 -23 -1 -36 -12 -29 -6 4 -8 3 -4 -4 3 -6 2 -13 -4 -17 -7 -4 -6
-13 1 -27 9 -16 8 -23 -2 -29 -11 -7 -10 -9 4 -9 19 0 22 -18 6 -40 -10 -13
-10 -13 -6 1 3 9 -1 16 -9 16 -10 0 -12 -7 -8 -21 4 -12 5 -19 3 -16 -2 3 -15
18 -29 34 -24 28 -25 29 -3 24 l22 -6 -20 36 c-10 20 -19 42 -19 49 0 26 -20
12 -37 -25 -9 -20 -19 -41 -21 -46 -3 -5 3 -6 12 -3 14 5 15 3 6 -13 -5 -10
-15 -22 -20 -25 -18 -11 -10 -26 10 -20 16 5 20 2 20 -14 0 -12 7 -21 15 -21
8 0 15 9 15 20 0 19 2 19 32 7 17 -7 33 -18 35 -24 5 -14 -39 -62 -73 -79 -22
-12 -30 -11 -62 5 -20 10 -45 28 -55 39 -11 11 -41 26 -68 33 -27 7 -49 16
-49 20 0 4 21 15 48 25 26 9 54 23 62 31 13 11 12 15 -5 32 -11 11 -36 22 -55
25 l-35 6 34 -17 c19 -10 36 -22 38 -28 1 -5 -21 -19 -50 -30 -43 -17 -52 -24
-52 -45 0 -20 7 -26 44 -37 25 -7 57 -24 71 -38 15 -14 40 -30 56 -35 29 -8
-1505 -11 -1603 -3 -43 4 -51 8 -46 21 4 13 1 12 -11 -3 -10 -11 -15 -14 -11
-8 4 8 0 13 -10 13 -10 0 -13 -5 -9 -12 7 -11 4 -10 -43 9 -7 3 -13 0 -13 -7
0 -6 5 -8 12 -4 7 4 8 3 4 -4 -10 -17 -20 -15 -46 8 -25 22 -35 26 -25 11 3
-6 -13 -8 -40 -6 -26 3 -45 1 -45 -5 0 -6 -9 -10 -21 -10 -11 0 -17 4 -14 10
3 6 -2 11 -12 12 -10 0 -24 2 -31 2 -7 1 -17 7 -21 14 -7 11 -10 10 -15 -3 -3
-9 -10 -13 -16 -10 -6 3 -13 -1 -16 -9 -3 -9 -10 -16 -16 -16 -5 0 -6 5 -3 10
3 6 0 10 -8 10 -8 0 -17 7 -21 15 -3 8 0 15 7 15 9 0 9 2 -1 8 -9 6 -10 16 -3
34 7 19 6 29 -5 40 -23 23 -27 100 -30 655 l-2 532 29 6 c24 5 36 1 65 -24 24
-22 44 -31 67 -30 l32 1 -29 8 c-16 5 -42 21 -58 37 -22 21 -37 27 -67 26
l-39 -2 4 152 c2 84 4 169 4 190 0 36 1 37 37 37 30 0 43 -7 77 -45 l42 -45
86 0 c91 0 118 -11 118 -49 0 -10 9 -26 20 -36 16 -14 28 -16 67 -10 55 8 94
8 176 -1 52 -5 61 -3 91 19 l33 26 48 -25 c103 -51 214 -16 185 60 -6 17 -22
29 -50 37 -22 7 -40 17 -40 22 0 15 31 47 46 47 20 0 42 39 36 63 -8 35 -20
44 -65 51 -23 4 -53 17 -67 30 -18 17 -42 25 -85 30 -49 5 -65 12 -88 36 -16
17 -46 39 -67 50 -35 18 -39 23 -34 49 8 36 -19 56 -88 65 -41 6 -47 10 -50
34 -4 33 -42 53 -107 59 l-46 3 65 -22 c54 -19 66 -27 68 -48 5 -35 13 -40 78
-53 58 -12 59 -12 59 -47 0 -31 5 -37 41 -55 23 -11 54 -34 70 -51 24 -26 39
-32 92 -38 45 -5 68 -13 85 -30 13 -13 42 -26 65 -30 67 -10 76 -63 15 -87
-32 -12 -50 -53 -33 -74 7 -8 21 -15 31 -15 28 0 59 -35 52 -58 -12 -48 -118
-48 -183 0 -29 21 -29 21 -56 2 -71 -50 -92 -54 -149 -27 -30 15 -42 15 -80 5
-82 -22 -115 -12 -115 34 0 40 -35 54 -132 54 l-88 0 -22 35 c-27 40 -55 55
-103 55 -35 0 -35 0 -35 48 0 26 -3 91 -7 144 l-6 97 25 10 c14 5 42 24 62 41
l36 32 35 -31 c50 -44 56 -38 10 9 -21 22 -44 40 -50 40 -6 0 -24 -14 -41 -31
-16 -17 -37 -35 -46 -40 -16 -9 -18 -5 -18 31 0 30 5 42 17 47 10 3 30 15 45
25 26 18 27 18 64 -7 44 -30 71 -38 110 -33 28 4 28 4 -11 16 -22 6 -62 25
-88 42 -58 36 -67 37 -97 5 -24 -26 -40 -32 -40 -16 0 5 9 11 21 14 12 3 18
10 15 16 -3 5 2 17 11 27 13 12 18 13 21 4 3 -9 11 -5 23 11 18 24 18 24 34 4
12 -14 18 -16 21 -7 3 6 10 10 15 6 5 -3 19 2 31 10 12 9 18 17 13 18 -59 9
207 15 768 16 499 2 677 -1 677 -9z m-1693 -321 c-3 -8 -6 -5 -6 6 -1 11 2 17
5 13 3 -3 4 -12 1 -19z m1795 -245 c3 -196 1 -223 -12 -223 -9 0 -22 16 -29
36 -11 31 -10 66 10 248 13 116 25 200 26 186 1 -14 4 -125 5 -247z m-1785
169 c-4 -24 -4 -24 -6 6 0 19 -5 31 -11 27 -6 -4 -7 1 -3 11 5 15 7 15 15 0 5
-9 7 -29 5 -44z m1738 -32 c-3 -5 -14 -10 -23 -10 -35 0 -89 -21 -146 -55 -61
-37 -88 -42 -39 -7 72 50 228 105 208 72z m223 -26 c57 -25 116 -63 109 -71
-3 -2 -21 7 -42 21 -41 28 -136 66 -165 66 -10 0 -22 5 -25 11 -11 16 62 1
123 -27z m409 -46 c-2 -13 -4 -5 -4 17 -1 22 1 32 4 23 2 -10 2 -28 0 -40z
m-641 -40 c-4 -40 -9 -87 -12 -105 l-6 -31 -85 60 c-83 60 -84 61 -66 80 22
21 128 67 157 68 17 0 18 -6 12 -72z m199 51 c31 -11 68 -31 82 -43 l26 -23
-82 -62 c-45 -35 -84 -61 -86 -59 -3 3 -25 173 -25 196 0 17 21 15 85 -9z
m-1925 -19 c0 -22 -36 -23 -37 -1 -1 10 6 17 18 17 11 0 19 -7 19 -16z m2367
-82 c-2 -13 -4 -3 -4 22 0 25 2 35 4 23 2 -13 2 -33 0 -45z m-931 -27 c-30
-44 -44 -78 -73 -180 -2 -8 -6 -11 -9 -8 -12 12 31 132 68 189 22 33 41 58 44
56 2 -3 -11 -29 -30 -57z m739 -46 c18 -38 36 -88 39 -110 4 -27 -4 -12 -23
42 -15 46 -39 97 -53 115 -38 51 -44 65 -19 43 12 -10 37 -51 56 -90z m-444
-143 c-14 -5 -74 28 -88 47 -6 9 -39 54 -74 101 l-62 85 117 -115 c64 -63 112
-116 107 -118z m214 118 c-60 -60 -111 -108 -112 -106 -2 2 6 23 18 47 15 31
45 62 103 106 44 34 85 62 91 62 5 1 -40 -48 -100 -109z m-381 -3 c37 -51 53
-79 44 -81 -28 -9 -200 -28 -205 -23 -2 3 2 30 11 59 17 59 73 145 86 132 4
-5 33 -44 64 -87z m549 51 c28 -43 65 -144 56 -153 -7 -6 -192 16 -202 25 -7
6 101 170 113 170 3 0 18 -19 33 -42z m254 -30 c-2 -13 -4 -5 -4 17 -1 22 1
32 4 23 2 -10 2 -28 0 -40z m-222 -153 l150 -23 -222 -1 c-176 -1 -223 2 -223
12 0 18 79 45 115 40 17 -2 98 -15 180 -28z m-327 3 c16 -16 15 -53 -3 -68
-19 -16 -45 -10 -61 15 -26 39 31 86 64 53z m565 -5 c-7 -2 -19 -2 -25 0 -7 3
-2 5 12 5 14 0 19 -2 13 -5z m-667 -35 c8 -13 -20 -36 -54 -45 -13 -3 -112 5
-220 18 l-197 24 210 5 c116 3 220 7 232 8 12 1 25 -3 29 -10z m-342 -89 c6
-39 48 -130 82 -176 9 -13 12 -23 8 -23 -27 0 -114 181 -114 236 0 30 18 3 24
-37z m510 37 c23 -10 58 -46 110 -115 42 -56 75 -101 74 -101 -2 0 -55 52
-118 115 -63 63 -111 115 -107 115 4 0 23 -6 41 -14z m330 -23 c-4 -21 -13
-56 -21 -78 -14 -42 -73 -135 -85 -135 -4 0 8 22 27 50 31 45 54 104 69 173
10 41 18 32 10 -10z m-717 17 c136 -18 130 -8 61 -105 -33 -47 -63 -85 -67
-85 -19 0 -91 146 -91 185 0 18 -2 18 97 5z m236 -30 c-13 -31 -37 -55 -112
-111 -80 -60 -90 -65 -61 -33 67 75 175 184 181 184 4 0 0 -18 -8 -40z m432 3
c-7 -37 -41 -112 -67 -146 -12 -17 -19 -11 -77 68 -34 48 -61 88 -59 90 5 4
138 22 177 24 33 1 33 1 26 -36z m-333 -15 c13 -39 12 -62 -11 -238 l-26 -195
-3 225 c-1 123 0 230 2 237 10 24 24 13 38 -29z m556 -1 c16 6 16 5 0 -13 -9
-10 -18 -37 -21 -59 -2 -22 -4 -6 -4 35 0 41 2 65 4 53 3 -16 9 -20 21 -16z
m-663 -178 l11 -101 -39 6 c-44 7 -127 47 -146 70 -11 13 -1 24 70 75 45 34
85 59 88 56 3 -3 10 -51 16 -106z m248 36 c78 -57 79 -55 -28 -106 -59 -28
-105 -37 -105 -21 0 18 22 178 26 190 3 11 7 11 21 0 10 -7 49 -35 86 -63z
m398 -26 c-1 -22 3 -46 9 -54 9 -11 9 -18 -3 -30 -14 -13 -16 -8 -19 48 -4 63
0 93 10 82 4 -3 5 -24 3 -46z m-815 -82 c27 -18 69 -38 94 -46 89 -27 98 -32
50 -26 -52 6 -158 55 -185 85 -26 28 -14 25 41 -13z m499 13 c-27 -30 -134
-79 -185 -85 -45 -5 -45 -5 -10 6 83 26 121 42 162 69 51 35 57 37 33 10z
m345 -65 c0 -2 -6 -2 -12 0 -9 4 -14 -9 -16 -42 -2 -35 0 -44 8 -33 6 9 10 10
10 3 0 -6 -4 -15 -10 -18 -15 -9 -12 -25 5 -25 18 0 19 -12 4 -27 -6 -6 -15
-26 -19 -45 -5 -22 -8 6 -9 90 -1 120 -1 122 19 112 11 -6 20 -13 20 -15z
m-33 -342 c-2 -21 -4 -4 -4 37 0 41 2 58 4 38 2 -21 2 -55 0 -75z m0 -235 c-2
-13 -4 -5 -4 17 -1 22 1 32 4 23 2 -10 2 -28 0 -40z m-2380 -80 c-3 -8 -6 -5
-6 6 -1 11 2 17 5 13 3 -3 4 -12 1 -19z m1013 -392 c0 -2 -9 -6 -20 -9 -11 -3
-18 -1 -14 4 5 9 34 13 34 5z m974 -5 c88 0 156 -4 153 -7 -4 -4 -37 -6 -73
-5 -46 1 -70 -2 -75 -11 -5 -7 -19 -13 -33 -13 -14 -1 -22 3 -20 7 6 10 -10
11 -20 1 -10 -11 -146 -10 -146 0 0 5 -10 5 -21 2 -13 -5 -25 -2 -29 6 -7 10
-12 10 -23 0 -11 -9 -16 -9 -19 0 -3 8 -14 7 -41 -4 -22 -10 -39 -12 -42 -6
-4 5 -11 7 -16 4 -5 -4 -9 0 -9 7 0 8 -5 6 -11 -5 -8 -14 -14 -16 -25 -6 -10
8 -17 9 -28 0 -10 -9 -17 -7 -27 5 -9 12 -24 15 -51 11 -21 -3 -40 -1 -43 4
-3 4 36 10 87 11 88 3 140 3 512 -1z m-1216 -8 c-15 -2 -42 -2 -60 0 -18 2 -6
4 27 4 33 0 48 -2 33 -4z m477 0 c-43 -2 -86 -9 -94 -16 -11 -9 -13 -9 -8 0 5
9 -8 13 -45 16 -29 2 10 3 87 3 77 0 104 -2 60 -3z m932 1 c-3 -3 -12 -4 -19
-1 -8 3 -5 6 6 6 11 1 17 -2 13 -5z"/>
<path d="M1284 2401 c-5 -3 -29 -28 -54 -55 -41 -44 -42 -47 -15 -33 17 8 41
27 54 41 l24 25 29 -24 c16 -14 36 -25 45 -25 13 0 13 -3 3 -15 -18 -22 8 -20
32 2 17 15 21 15 57 -5 21 -12 47 -22 57 -22 14 0 11 5 -11 16 -16 8 -39 24
-51 35 -20 19 -54 18 -54 -2 0 -17 -18 -9 -62 30 -24 22 -49 36 -54 32z"/>
<path d="M680 2355 c-38 -39 -33 -46 11 -14 l29 21 36 -31 c19 -17 42 -31 52
-31 12 1 10 4 -8 14 -14 8 -35 28 -48 45 -12 17 -26 31 -30 31 -5 0 -23 -16
-42 -35z"/>
<path d="M1004 2349 c-13 -26 -13 -33 -3 -40 11 -6 11 -11 1 -21 -17 -17 -15
-29 5 -21 13 5 15 2 11 -15 -4 -15 -2 -22 8 -22 9 0 14 8 12 18 -2 9 3 16 10
15 14 -3 15 6 2 27 -5 9 -5 17 0 20 11 7 -9 70 -22 70 -4 0 -15 -14 -24 -31z"/>
<path d="M1591 2321 c-9 -6 -11 -18 -6 -39 6 -29 4 -31 -34 -43 -22 -7 -50
-22 -62 -35 -16 -17 -28 -22 -50 -17 -18 3 -29 1 -29 -6 0 -6 6 -11 14 -11 8
0 21 -2 29 -6 8 -3 27 6 43 19 16 13 41 27 57 31 41 10 70 42 58 65 -13 23 -5
31 28 31 21 0 23 2 11 10 -19 12 -41 12 -59 1z"/>
<path d="M2303 2293 c-3 -10 -14 -37 -24 -60 -15 -37 -16 -44 -3 -51 13 -7 12
-12 -6 -34 -26 -34 -25 -38 5 -38 20 0 25 -5 25 -26 0 -19 4 -25 18 -22 11 2
17 12 16 27 -1 20 2 22 31 19 28 -3 32 -1 25 12 -5 9 -16 22 -24 30 -20 16
-21 40 -2 40 11 0 8 14 -12 60 -28 63 -39 72 -49 43z"/>
<path d="M856 2239 c-8 -19 -10 -36 -6 -39 5 -3 5 -12 0 -20 -12 -19 -13 -33
-1 -25 5 3 12 -4 16 -15 9 -27 25 -26 17 2 -4 17 -2 20 11 15 20 -8 22 4 5 22
-10 10 -10 15 -1 18 9 3 9 11 1 31 -19 45 -27 47 -42 11z"/>
<path d="M2071 2240 c-18 -15 -19 -20 -7 -20 9 0 25 5 36 12 16 10 26 8 60
-11 22 -12 46 -20 53 -18 7 3 4 8 -8 13 -11 4 -31 16 -44 26 -30 23 -60 22
-90 -2z"/>
<path d="M1305 2220 c-4 -6 7 -10 27 -10 25 0 29 3 18 10 -19 13 -37 13 -45 0z"/>
<path d="M1725 2205 c-18 -14 -24 -24 -16 -25 8 0 23 7 33 17 17 15 19 15 39
-3 15 -13 20 -14 17 -5 -2 8 -13 20 -24 27 -17 12 -23 10 -49 -11z"/>
<path d="M426 2202 c-3 -5 8 -9 25 -10 16 0 27 4 24 9 -8 11 -42 12 -49 1z"/>
<path d="M371 2168 c-7 -11 -7 -18 -1 -18 5 0 10 4 10 9 0 4 11 6 25 3 14 -2
25 0 25 6 0 19 -47 20 -59 0z"/>
<path d="M1365 2170 c-3 -5 3 -10 15 -10 12 0 18 5 15 10 -3 6 -10 10 -15 10
-5 0 -12 -4 -15 -10z"/>
<path d="M1148 2158 c9 -9 15 -9 24 0 9 9 7 12 -12 12 -19 0 -21 -3 -12 -12z"/>
<path d="M1200 2160 c0 -5 9 -10 21 -10 11 0 17 5 14 10 -3 6 -13 10 -21 10
-8 0 -14 -4 -14 -10z"/>
<path d="M421 2140 c-25 -22 -12 -27 19 -8 15 10 26 9 56 -5 48 -23 55 -15 11
12 -42 26 -55 26 -86 1z"/>
<path d="M1095 2150 c-3 -5 1 -10 9 -10 8 0 18 5 21 10 3 6 -1 10 -9 10 -8 0
-18 -4 -21 -10z"/>
<path d="M1250 2156 c0 -9 30 -14 35 -6 4 6 -3 10 -14 10 -12 0 -21 -2 -21 -4z"/>
<path d="M1310 2150 c0 -5 7 -10 15 -10 8 0 15 5 15 10 0 6 -7 10 -15 10 -8 0
-15 -4 -15 -10z"/>
<path d="M195 2120 c3 -5 10 -10 16 -10 5 0 9 5 9 10 0 6 -7 10 -16 10 -8 0
-12 -4 -9 -10z"/>
<path d="M1070 2110 c0 -11 5 -20 10 -20 6 0 10 9 10 20 0 11 -4 20 -10 20 -5
0 -10 -9 -10 -20z"/>
<path d="M1563 2113 c9 -2 25 -2 35 0 9 3 1 5 -18 5 -19 0 -27 -2 -17 -5z"/>
<path d="M240 2102 c0 -5 7 -15 15 -22 8 -7 15 -8 15 -2 0 5 -7 15 -15 22 -8
7 -15 8 -15 2z"/>
<path d="M1096 2072 c-3 -6 1 -13 10 -16 23 -9 28 -2 10 13 -8 7 -17 8 -20 3z"/>
<path d="M1402 2050 c-18 -16 -26 -30 -19 -30 8 0 24 11 37 25 l23 24 25 -19
c14 -12 38 -19 56 -19 29 2 29 2 5 6 -15 2 -35 13 -45 24 -24 27 -46 24 -82
-11z"/>
<path d="M260 2040 c0 -11 5 -20 10 -20 6 0 10 9 10 20 0 11 -4 20 -10 20 -5
0 -10 -9 -10 -20z"/>
<path d="M600 2040 c-11 -7 -3 -10 30 -9 34 0 40 2 25 9 -27 12 -37 12 -55 0z"/>
<path d="M1154 2035 c21 -16 32 -13 21 4 -3 6 -14 11 -23 11 -15 -1 -15 -2 2
-15z"/>
<path d="M2160 2040 c-11 -7 -4 -10 25 -9 31 0 36 2 20 9 -26 11 -28 11 -45 0z"/>
<path d="M375 2024 c-16 -8 -37 -22 -45 -30 -13 -13 -13 -14 5 -8 11 4 30 14
43 22 21 14 27 14 52 -1 42 -25 48 -20 10 8 -19 14 -34 25 -34 25 -1 0 -14 -7
-31 -16z"/>
<path d="M1200 2006 c0 -9 5 -16 10 -16 6 0 10 4 10 9 0 6 -4 13 -10 16 -5 3
-10 -1 -10 -9z"/>
<path d="M241 1996 c-8 -9 -11 -19 -7 -23 9 -9 29 13 24 27 -2 8 -8 7 -17 -4z"/>
<path d="M661 1970 c-25 -22 -12 -27 18 -8 15 9 23 9 35 -2 15 -12 15 -14 0
-31 -15 -16 -15 -19 -2 -19 9 0 21 7 28 15 9 11 17 12 30 5 10 -6 27 -10 37
-9 10 0 -2 10 -27 22 -25 12 -49 28 -53 35 -12 18 -38 14 -66 -8z"/>
<path d="M1458 1973 c6 -2 18 -2 25 0 6 3 1 5 -13 5 -14 0 -19 -2 -12 -5z"/>
<path d="M510 1960 c0 -5 4 -10 9 -10 6 0 13 5 16 10 3 6 -1 10 -9 10 -9 0
-16 -4 -16 -10z"/>
<path d="M1200 1951 c0 -25 6 -27 13 -6 4 8 2 17 -3 20 -6 4 -10 -3 -10 -14z"/>
<path d="M260 1950 c0 -13 28 -25 38 -16 3 4 0 11 -8 16 -20 13 -30 12 -30 0z"/>
<path d="M470 1950 c-8 -5 -12 -11 -9 -14 2 -3 11 -1 19 4 8 5 12 11 9 14 -2
3 -11 1 -19 -4z"/>
<path d="M550 1952 c0 -5 7 -13 16 -16 10 -4 14 -1 12 6 -5 15 -28 23 -28 10z"/>
<path d="M310 1940 c0 -5 9 -10 20 -10 11 0 20 5 20 10 0 6 -9 10 -20 10 -11
0 -20 -4 -20 -10z"/>
<path d="M1128 1943 c7 -3 16 -2 19 1 4 3 -2 6 -13 5 -11 0 -14 -3 -6 -6z"/>
<path d="M370 1930 c0 -5 9 -10 21 -10 11 0 17 5 14 10 -3 6 -13 10 -21 10 -8
0 -14 -4 -14 -10z"/>
<path d="M586 1906 c3 -9 11 -16 16 -16 13 0 5 23 -10 28 -7 2 -10 -2 -6 -12z"/>
<path d="M1155 1910 c-3 -5 1 -10 9 -10 8 0 18 5 21 10 3 6 -1 10 -9 10 -8 0
-18 -4 -21 -10z"/>
<path d="M410 1900 c0 -5 7 -10 15 -10 8 0 15 5 15 10 0 6 -7 10 -15 10 -8 0
-15 -4 -15 -10z"/>
<path d="M452 1879 c2 -7 10 -15 17 -17 8 -3 12 1 9 9 -2 7 -10 15 -17 17 -8
3 -12 -1 -9 -9z"/>
<path d="M918 1883 c12 -2 30 -2 40 0 9 3 -1 5 -23 4 -22 0 -30 -2 -17 -4z"/>
<path d="M1270 1855 c-13 -14 -19 -25 -13 -25 5 0 18 9 28 20 18 20 19 20 39
2 37 -34 52 -36 22 -4 -36 39 -46 39 -76 7z"/>
<path d="M495 1840 c3 -5 13 -10 21 -10 8 0 14 5 14 10 0 6 -9 10 -21 10 -11
0 -17 -4 -14 -10z"/>
<path d="M630 1840 c-12 -8 -10 -10 8 -10 13 0 20 4 17 10 -7 12 -6 12 -25 0z"/>
<path d="M563 1833 c9 -2 23 -2 30 0 6 3 -1 5 -18 5 -16 0 -22 -2 -12 -5z"/>
<path d="M680 1830 c0 -12 28 -25 36 -17 3 3 -4 10 -15 17 -15 7 -21 7 -21 0z"/>
<path d="M888 1813 c6 -2 18 -2 25 0 6 3 1 5 -13 5 -14 0 -19 -2 -12 -5z"/>
<path d="M205 1770 c-12 -23 -14 -35 -7 -38 8 -2 6 -12 -4 -28 -12 -18 -13
-24 -4 -24 9 0 8 -6 -3 -18 -19 -20 -13 -34 9 -25 10 4 14 -3 14 -21 0 -14 5
-26 10 -26 6 0 10 11 10 25 0 20 5 25 27 25 25 0 25 1 9 19 -13 15 -14 20 -4
24 10 3 9 9 -5 25 -11 11 -16 25 -13 31 4 6 0 23 -7 38 l-15 27 -17 -34z"/>
<path d="M838 1793 c6 -2 18 -2 25 0 6 3 1 5 -13 5 -14 0 -19 -2 -12 -5z"/>
<path d="M730 1782 c0 -5 7 -16 16 -23 14 -12 16 -11 13 5 -4 20 -29 35 -29
18z"/>
<path d="M1290 1780 c0 -5 9 -10 21 -10 11 0 17 5 14 10 -3 6 -13 10 -21 10
-8 0 -14 -4 -14 -10z"/>
<path d="M798 1753 c6 -2 18 -2 25 0 6 3 1 5 -13 5 -14 0 -19 -2 -12 -5z"/>
<path d="M367 1695 c-19 -40 -22 -59 -7 -50 16 10 12 -11 -5 -25 -19 -16 -19
-30 -1 -30 7 0 16 -9 19 -20 3 -11 10 -20 16 -20 6 0 11 9 11 20 0 14 7 20 22
20 l21 0 -21 23 c-23 24 -30 43 -12 32 15 -9 11 16 -8 53 l-18 33 -17 -36z"/>
<path d="M1200 1705 c-37 -27 -19 -35 18 -9 21 14 26 14 56 0 49 -23 54 -20
12 9 -20 14 -40 25 -45 25 -4 0 -22 -11 -41 -25z"/>
<path d="M715 1620 c-4 -6 3 -10 14 -10 25 0 27 6 6 13 -8 4 -17 2 -20 -3z"/>
<path d="M828 1623 c6 -2 18 -2 25 0 6 3 1 5 -13 5 -14 0 -19 -2 -12 -5z"/>
<path d="M688 1593 c7 -3 16 -2 19 1 4 3 -2 6 -13 5 -11 0 -14 -3 -6 -6z"/>
<path d="M570 1570 c0 -5 4 -10 9 -10 6 0 13 5 16 10 3 6 -1 10 -9 10 -9 0
-16 -4 -16 -10z"/>
<path d="M620 1570 c0 -5 7 -10 16 -10 8 0 12 5 9 10 -3 6 -10 10 -16 10 -5 0
-9 -4 -9 -10z"/>
<path d="M880 1559 c-25 -14 -29 -19 -15 -19 11 1 31 7 45 14 21 12 29 12 62
-5 20 -10 45 -19 54 -19 10 0 -5 11 -32 25 -57 29 -67 29 -114 4z"/>
<path d="M520 1545 c-20 -24 -6 -28 15 -5 10 11 13 20 8 20 -6 0 -16 -7 -23
-15z"/>
<path d="M730 1515 c-15 -17 -7 -19 21 -5 14 8 27 6 51 -6 l33 -17 -19 22
c-22 24 -68 28 -86 6z"/>
<path d="M310 1508 c24 -6 57 -21 73 -34 30 -25 61 -31 72 -14 3 6 -5 10 -19
10 -13 0 -38 11 -54 25 -23 19 -41 25 -73 24 l-44 -1 45 -10z"/>
<path d="M493 1470 c-13 -34 1 -41 18 -9 6 12 7 25 2 30 -5 5 -14 -4 -20 -21z"/>
<path d="M556 1460 c18 -4 47 -17 67 -29 37 -22 102 -28 127 -10 11 7 4 9 -25
4 -32 -5 -50 -1 -88 20 -26 14 -62 25 -80 24 l-32 -1 31 -8z"/>
<path d="M1105 1452 c-23 -14 -34 -16 -47 -8 -13 8 -21 7 -30 -2 -9 -9 -6 -12
16 -12 15 0 25 -4 21 -10 -10 -15 4 -12 46 12 38 21 41 21 68 5 45 -26 60 -20
19 8 -44 30 -54 31 -93 7z"/>
<path d="M788 1433 c7 -3 16 -2 19 1 4 3 -2 6 -13 5 -11 0 -14 -3 -6 -6z"/>
<path d="M835 1430 c3 -5 13 -10 21 -10 8 0 12 5 9 10 -3 6 -13 10 -21 10 -8
0 -12 -4 -9 -10z"/>
<path d="M453 1423 c-18 -6 -16 -23 1 -23 17 0 30 16 19 23 -5 2 -14 2 -20 0z"/>
<path d="M400 1400 c-12 -8 -10 -10 8 -10 13 0 20 4 17 10 -7 12 -6 12 -25 0z"/>
<path d="M890 1400 c0 -12 28 -25 36 -17 3 3 -4 10 -15 17 -15 7 -21 7 -21 0z"/>
<path d="M330 1380 c-13 -9 -13 -10 0 -10 8 0 22 5 30 10 13 9 13 10 0 10 -8
0 -22 -5 -30 -10z"/>
<path d="M1293 1383 c9 -2 23 -2 30 0 6 3 -1 5 -18 5 -16 0 -22 -2 -12 -5z"/>
<path d="M778 1373 c6 -2 18 -2 25 0 6 3 1 5 -13 5 -14 0 -19 -2 -12 -5z"/>
<path d="M950 1370 c0 -5 12 -10 26 -10 14 0 23 4 19 10 -3 6 -15 10 -26 10
-10 0 -19 -4 -19 -10z"/>
<path d="M1030 1370 c-12 -8 -10 -10 8 -10 13 0 20 4 17 10 -7 12 -6 12 -25 0z"/>
<path d="M237 1283 c-12 -12 -7 -21 13 -26 20 -5 21 -10 15 -124 -8 -144 -11
-163 -31 -163 -9 0 -14 -6 -12 -12 6 -17 97 -23 112 -8 8 8 6 14 -6 21 -15 9
-18 25 -17 112 l0 102 45 -115 c25 -63 49 -119 55 -125 15 -15 27 5 73 124 48
127 56 125 56 -11 0 -61 -3 -79 -16 -86 -30 -17 -4 -32 56 -32 65 0 78 8 51
32 -15 12 -19 38 -24 144 -6 121 -5 130 14 144 11 9 17 19 13 23 -12 12 -101
8 -111 -5 -5 -7 -27 -60 -48 -117 l-39 -104 -40 104 c-23 57 -45 110 -49 117
-9 12 -98 17 -110 5z"/>
<path d="M685 1280 c-3 -6 1 -13 9 -16 23 -9 24 -275 1 -294 -25 -20 -7 -30
55 -30 60 0 86 15 56 32 -23 13 -24 269 -1 288 8 7 12 16 9 21 -7 12 -121 11
-129 -1z"/>
<path d="M867 1283 c-12 -12 -7 -21 15 -26 21 -6 21 -8 14 -139 -5 -103 -10
-136 -22 -145 -26 -19 -6 -33 46 -33 56 0 71 13 40 38 -19 15 -21 25 -18 109
l3 91 80 -116 c66 -96 85 -117 105 -117 l25 0 3 150 c2 114 6 153 17 165 21
23 10 30 -45 30 -56 0 -68 -9 -40 -30 19 -14 21 -24 18 -103 l-3 -88 -72 111
-72 110 -44 0 c-24 0 -47 -3 -50 -7z"/>
<path d="M1236 1281 c-3 -5 1 -14 9 -21 23 -19 22 -275 -1 -288 -30 -17 -4
-32 56 -32 62 0 80 10 55 30 -23 19 -22 285 1 294 8 3 12 10 9 16 -8 12 -122
13 -129 1z"/>
<path d="M2272 1090 c-36 -34 -19 -41 22 -9 l26 20 26 -20 c40 -31 52 -25 19
9 -36 37 -51 37 -93 0z"/>
<path d="M2169 1043 c-8 -9 -27 -24 -44 -35 -23 -14 -26 -18 -11 -18 11 0 35
12 54 26 33 26 35 26 62 10 41 -23 46 -20 12 9 -35 29 -54 31 -73 8z"/>
<path d="M1520 1021 c-28 -24 -31 -29 -13 -24 12 3 28 11 34 19 15 18 39 17
63 -1 33 -25 43 -16 11 10 -39 32 -54 31 -95 -4z"/>
<path d="M1746 978 c-13 -19 -15 -36 -10 -63 8 -45 -8 -65 -76 -94 -47 -20
-90 -61 -90 -86 0 -22 35 -42 84 -49 69 -9 88 -28 80 -82 -5 -36 -3 -44 17
-58 13 -9 34 -16 47 -16 40 0 90 -30 100 -60 9 -24 16 -28 59 -32 26 -3 57 -8
68 -13 19 -7 19 -7 3 10 -11 12 -32 18 -60 19 -37 1 -45 5 -56 29 -14 30 -79
66 -118 67 -32 0 -46 23 -39 62 10 52 -16 77 -88 87 -71 10 -85 21 -69 56 8
17 33 35 76 55 73 32 90 55 80 105 -4 22 -2 41 6 50 6 8 10 20 8 27 -3 8 -11
3 -22 -14z"/>
<path d="M2036 873 c-12 -26 -14 -39 -6 -41 7 -3 5 -10 -6 -23 -16 -18 -16
-19 4 -19 15 0 22 -6 22 -20 0 -11 5 -20 10 -20 6 0 10 9 10 21 0 14 5 19 14
16 24 -9 27 5 5 21 -16 11 -18 17 -8 22 9 6 8 16 -5 44 -9 20 -18 36 -20 36
-1 0 -10 -17 -20 -37z"/>
<path d="M2224 884 c-4 -14 -2 -30 5 -37 14 -14 15 -77 1 -77 -5 0 -10 5 -10
10 0 14 -27 12 -34 -2 -5 -10 -7 -10 -12 0 -3 6 -12 12 -20 12 -10 0 -14 -15
-14 -60 0 -57 -1 -60 -27 -67 -25 -6 -23 -8 22 -15 34 -5 65 -3 97 7 37 11 62
12 109 4 70 -11 83 -7 42 13 -26 12 -28 18 -34 88 -3 41 -2 77 3 78 4 2 8 19
8 38 0 24 -5 34 -15 34 -8 0 -15 -9 -15 -20 0 -11 -4 -20 -9 -20 -5 0 -11 9
-14 20 -3 11 -10 20 -16 20 -6 0 -11 -9 -11 -20 0 -11 -4 -20 -9 -20 -5 0 -11
9 -14 20 -7 28 -25 25 -33 -6z m63 -106 c-3 -7 -5 -2 -5 12 0 14 2 19 5 13 2
-7 2 -19 0 -25z m-77 -83 c0 -8 -4 -15 -10 -15 -5 0 -10 7 -10 15 0 8 5 15 10
15 6 0 10 -7 10 -15z"/>
<path d="M247 843 c-12 -12 -7 -21 14 -26 19 -5 20 -11 15 -54 -3 -26 -8 -96
-12 -155 -6 -99 -8 -108 -30 -123 -37 -24 -20 -35 57 -35 53 0 69 3 69 14 0 8
-9 18 -20 21 -19 6 -20 15 -20 128 1 142 2 142 70 -46 37 -104 45 -118 64
-115 17 2 30 27 71 135 56 150 62 149 66 -5 2 -79 0 -87 -20 -95 -40 -18 -21
-27 59 -27 44 0 80 3 80 7 0 3 -7 14 -16 24 -12 13 -18 56 -26 165 -11 145
-11 147 11 163 30 23 17 31 -50 31 l-57 0 -46 -126 c-25 -69 -46 -131 -46
-137 0 -23 -17 9 -43 78 -14 39 -35 96 -47 128 l-21 57 -58 0 c-32 0 -61 -3
-64 -7z"/>
<path d="M885 838 c-2 -7 -29 -85 -60 -173 -36 -105 -62 -165 -75 -174 -34
-23 -23 -31 45 -31 63 0 81 10 49 28 -13 7 -14 15 -4 51 l11 42 56 -3 c55 -3
56 -4 69 -40 12 -35 11 -39 -7 -48 -37 -21 -18 -30 61 -30 82 0 95 7 61 31
-12 9 -40 78 -77 187 l-58 172 -33 0 c-19 0 -36 -6 -38 -12z m54 -195 c1 -8
-12 -13 -35 -13 -29 0 -35 3 -30 16 4 9 12 37 18 62 l11 46 18 -49 c10 -28 18
-56 18 -62z"/>
<path d="M1140 836 c0 -8 7 -16 15 -20 12 -4 15 -32 15 -165 0 -132 -3 -160
-15 -165 -8 -3 -15 -10 -15 -16 0 -6 32 -10 80 -10 51 0 80 4 80 11 0 6 -9 13
-20 16 -17 5 -20 14 -20 64 0 56 1 59 25 59 41 0 104 30 125 60 29 41 27 110
-3 138 -33 32 -79 42 -179 42 -69 0 -88 -3 -88 -14z m177 -34 c19 -12 34 -61
27 -90 -9 -38 -33 -62 -61 -62 -22 0 -23 3 -23 80 0 76 1 80 23 80 12 0 27 -4
34 -8z"/>
<path d="M1911 751 c-8 -5 -11 -16 -6 -30 5 -16 2 -21 -12 -21 -11 0 -28 -6
-38 -14 -16 -11 -11 -12 29 -2 44 10 46 12 41 37 -5 21 -2 28 12 32 12 3 13 5
3 6 -8 0 -21 -3 -29 -8z"/>
<path d="M1813 743 c9 -2 25 -2 35 0 9 3 1 5 -18 5 -19 0 -27 -2 -17 -5z"/>
<path d="M1854 635 c21 -16 32 -13 21 4 -3 6 -14 11 -23 11 -15 -1 -15 -2 2
-15z"/>
<path d="M1598 633 c6 -2 18 -2 25 0 6 3 1 5 -13 5 -14 0 -19 -2 -12 -5z"/>
<path d="M1900 611 c0 -12 28 -22 35 -12 3 5 -2 12 -11 15 -21 8 -24 8 -24 -3z"/>
<path d="M1960 590 c0 -12 28 -25 36 -17 3 3 -4 10 -15 17 -15 7 -21 7 -21 0z"/>
<path d="M2015 570 c-4 -6 -4 -10 -1 -10 2 0 11 -3 20 -6 9 -3 16 -2 16 4 0
14 -28 23 -35 12z"/>
<path d="M2195 570 c-4 -6 7 -10 24 -10 17 0 31 5 31 10 0 6 -11 10 -24 10
-14 0 -28 -4 -31 -10z"/>
<path d="M1550 540 c-11 -7 -4 -10 25 -10 29 0 36 3 25 10 -8 5 -19 10 -25 10
-5 0 -17 -5 -25 -10z"/>
<path d="M2070 532 c0 -5 7 -16 16 -23 14 -12 16 -11 13 5 -4 20 -29 35 -29
18z"/>
<path d="M2254 505 c-32 -23 -43 -35 -31 -35 11 0 32 10 49 21 l30 22 27 -20
c34 -26 71 -38 71 -24 0 6 -7 11 -15 11 -8 0 -27 14 -42 30 -14 17 -29 30 -33
30 -4 0 -29 -16 -56 -35z"/>
<path d="M1617 465 c-33 -30 -16 -34 20 -5 23 18 27 18 46 5 32 -22 46 -18 17
5 -33 26 -49 25 -83 -5z"/>
<path d="M2100 465 c0 -15 4 -24 10 -20 6 3 10 12 10 20 0 8 -4 17 -10 20 -6
4 -10 -5 -10 -20z"/>
<path d="M2071 411 c-10 -17 -9 -21 3 -21 20 0 31 19 18 32 -7 7 -14 3 -21
-11z"/>
<path d="M1840 390 c0 -5 7 -10 16 -10 8 0 12 5 9 10 -3 6 -10 10 -16 10 -5 0
-9 -4 -9 -10z"/>
<path d="M234 374 c3 -9 6 -40 6 -69 0 -45 3 -55 20 -60 32 -10 70 20 70 55 0
30 -24 51 -47 43 -8 -3 -13 5 -13 21 0 20 -5 26 -21 26 -15 0 -19 -4 -15 -16z
m64 -79 c-4 -33 -22 -33 -26 0 -2 18 1 25 13 25 12 0 15 -7 13 -25z"/>
<path d="M480 380 c0 -5 5 -10 10 -10 14 0 12 -94 -2 -108 -9 -9 0 -12 40 -12
61 0 92 23 92 68 0 44 -37 72 -93 72 -26 0 -47 -4 -47 -10z m98 -55 c3 -29 -1
-43 -14 -52 -29 -21 -34 -16 -34 43 0 52 1 55 23 52 18 -2 23 -10 25 -43z"/>
<path d="M740 375 c0 -8 7 -15 15 -15 8 0 15 7 15 15 0 8 -7 15 -15 15 -8 0
-15 -7 -15 -15z"/>
<path d="M985 320 c0 -63 2 -70 20 -70 18 0 20 6 17 70 -3 57 -7 70 -20 70
-14 0 -17 -11 -17 -70z"/>
<path d="M1490 380 c-11 -7 -7 -10 18 -10 20 0 31 4 27 10 -8 13 -26 13 -45 0z"/>
<path d="M1353 347 c-15 -13 -37 -29 -48 -35 -20 -11 -20 -11 1 -12 11 0 35
11 54 25 33 24 33 24 64 6 17 -10 42 -22 56 -25 23 -6 23 -6 5 5 -11 7 -33 23
-48 36 -16 12 -35 23 -42 23 -7 0 -26 -11 -42 -23z"/>
<path d="M2035 359 c-4 -6 -5 -13 -2 -16 7 -7 27 6 27 18 0 12 -17 12 -25 -2z"/>
<path d="M1656 328 c-30 -40 -32 -50 -11 -42 20 8 19 -6 -2 -36 -16 -22 -16
-23 0 -17 12 5 17 1 17 -13 0 -11 7 -20 15 -20 9 0 12 6 9 15 -4 10 0 15 15
15 25 0 27 12 6 30 -17 14 -21 35 -5 25 14 -8 13 7 -4 45 l-13 32 -27 -34z"/>
<path d="M1882 349 c2 -7 10 -15 17 -17 8 -3 12 1 9 9 -2 7 -10 15 -17 17 -8
3 -12 -1 -9 -9z"/>
<path d="M655 342 c-5 -4 -10 -26 -10 -49 0 -37 3 -43 21 -43 17 0 20 5 16 30
-3 21 0 32 12 36 23 9 20 27 -4 21 -10 -3 -20 -1 -22 4 -2 4 -7 5 -13 1z"/>
<path d="M737 343 c-14 -4 -16 -8 -6 -19 6 -7 9 -27 7 -44 -4 -25 -1 -30 16
-30 19 0 21 5 18 50 -2 27 -7 49 -10 49 -4 -1 -15 -3 -25 -6z"/>
<path d="M796 333 c-8 -21 3 -31 14 -13 5 8 12 11 16 8 3 -4 -4 -23 -16 -42
l-22 -36 41 0 c32 0 41 4 41 17 0 13 -3 14 -12 5 -24 -24 -29 -11 -8 24 12 19
21 36 19 38 -2 2 -18 6 -36 9 -23 5 -33 2 -37 -10z"/>
<path d="M897 344 c-4 -4 -7 -14 -7 -23 0 -12 3 -12 12 -3 24 24 29 11 9 -22
-28 -44 -27 -46 13 -46 34 0 55 14 41 28 -3 3 -10 0 -15 -8 -18 -29 -22 -1 -4
29 10 17 16 32 13 35 -9 9 -55 17 -62 10z"/>
<path d="M1040 343 c0 -4 9 -16 20 -28 20 -21 20 -21 0 -43 l-21 -22 21 0 c11
0 20 7 20 16 0 8 5 12 10 9 6 -4 8 -11 5 -16 -4 -5 8 -9 24 -9 l31 0 -20 20
c-24 24 -25 34 -5 54 20 20 19 25 -5 23 -11 -1 -20 -7 -20 -15 0 -10 -4 -10
-16 2 -16 16 -44 22 -44 9z"/>
<path d="M350 298 c24 -52 25 -68 5 -68 -16 0 -20 -15 -7 -24 15 -9 30 9 60
72 28 57 29 62 11 62 -14 0 -19 -7 -19 -26 0 -14 -4 -23 -10 -19 -5 3 -10 15
-10 26 0 14 -7 19 -25 19 l-24 0 19 -42z"/>
<path d="M1998 332 c-10 -2 -18 -8 -18 -13 0 -13 27 -11 35 2 9 13 4 16 -17
11z"/>
<path d="M1928 308 c9 -9 15 -9 24 0 9 9 7 12 -12 12 -19 0 -21 -3 -12 -12z"/>
<path d="M1823 245 c-25 -23 -31 -33 -18 -29 11 4 28 14 38 23 14 12 24 13 45
4 15 -6 36 -14 47 -18 l20 -7 -20 17 c-11 9 -32 23 -47 31 -27 14 -30 13 -65
-21z"/>
<path d="M1465 240 c-4 -6 9 -10 32 -10 28 0 34 3 23 10 -20 13 -47 13 -55 0z"/>
<path d="M2160 170 c0 -5 5 -10 11 -10 5 0 7 5 4 10 -3 6 -8 10 -11 10 -2 0
-4 -4 -4 -10z"/>
<path d="M1625 80 c3 -5 8 -10 11 -10 2 0 4 5 4 10 0 6 -5 10 -11 10 -5 0 -7
-4 -4 -10z"/>
<path d="M76 1815 c-3 -8 -1 -15 4 -15 6 0 10 7 10 15 0 8 -2 15 -4 15 -2 0
-6 -7 -10 -15z"/>
<path d="M7 1183 c-4 -3 -7 -12 -7 -19 0 -9 5 -10 24 -1 16 8 21 14 13 19 -15
10 -22 10 -30 1z"/>
<path d="M2 1070 c0 -14 2 -19 5 -12 2 6 2 18 0 25 -3 6 -5 1 -5 -13z"/>
<path d="M0 990 c0 -25 5 -40 13 -40 9 0 9 -2 1 -8 -8 -4 -12 -39 -11 -92 0
-47 2 -73 4 -58 3 17 9 25 18 22 7 -3 16 -1 20 5 3 6 2 11 -3 11 -5 0 -8 11
-7 25 2 14 -1 27 -6 30 -4 3 -4 17 2 32 7 19 6 30 -5 42 -8 10 -11 23 -6 36 8
22 4 35 -11 35 -5 0 -9 -18 -9 -40z"/>
<path d="M67 613 c-4 -3 -7 -11 -7 -17 0 -6 5 -5 12 2 6 6 9 14 7 17 -3 3 -9
2 -12 -2z"/>
</g>
</svg>
